<svg width="249" height="87" viewBox="0 0 249 87" fill="none" xmlns="http://www.w3.org/2000/svg">
<mask id="mask0_1_64" style="mask-type:alpha" maskUnits="userSpaceOnUse" x="90" y="51" width="21" height="26">
<path d="M90.2429 51.1128H110.676V76.3829H90.2429V51.1128Z" fill="white"/>
</mask>
<g mask="url(#mask0_1_64)">
<path fill-rule="evenodd" clip-rule="evenodd" d="M102.887 70.9061C103.976 70.1786 104.836 69.1837 105.467 67.9217C106.098 66.6596 106.414 65.2712 106.414 63.7564C106.414 62.2417 106.098 60.8539 105.467 59.5918C104.836 58.3297 103.976 57.3318 102.887 56.5979C101.797 55.864 100.595 55.4971 99.2795 55.4971H94.4807V71.998H99.2795C100.595 71.998 101.797 71.6343 102.887 70.9061ZM90.2191 51.1128H99.2795C101.374 51.1128 103.291 51.6734 105.033 52.7945C106.774 53.9156 108.151 55.4418 109.161 57.373C110.171 59.3042 110.676 61.4323 110.676 63.7564C110.676 66.0812 110.171 68.2093 109.161 70.1398C108.151 72.0717 106.774 73.5947 105.033 74.7101C103.291 75.8255 101.374 76.3829 99.2795 76.3829H90.2191V51.1128Z" fill="#464B4C"/>
</g>
<path fill-rule="evenodd" clip-rule="evenodd" d="M113.407 76.3829H117.669V51.1299H113.407V76.3829Z" fill="#464B4C"/>
<path fill-rule="evenodd" clip-rule="evenodd" d="M131.674 51.1128H149.148V55.6558H142.55V76.3829H138.288V55.6558H131.674V51.1128Z" fill="#D8223A"/>
<path fill-rule="evenodd" clip-rule="evenodd" d="M153.797 67.9921C154.454 69.2656 155.352 70.2693 156.488 71.0032C157.625 71.7364 158.882 72.104 160.261 72.104C161.65 72.104 162.912 71.7364 164.049 71.0032C165.186 70.2693 166.08 69.2656 166.732 67.9921C167.385 66.718 167.711 65.3061 167.711 63.7564C167.711 62.1953 167.385 60.7777 166.732 59.5035C166.08 58.23 165.186 57.2264 164.049 56.4925C162.912 55.7586 161.65 55.3916 160.261 55.3916C158.882 55.3916 157.625 55.7586 156.488 56.4925C155.352 57.2264 154.454 58.2332 153.797 59.5124C153.139 60.7923 152.81 62.2067 152.81 63.7564C152.81 65.3061 153.139 66.718 153.797 67.9921ZM150.088 57.1616C151.113 55.1834 152.518 53.6249 154.302 52.4859C156.085 51.3477 158.067 50.7782 160.245 50.7782C162.423 50.7782 164.407 51.3477 166.196 52.4859C167.985 53.6249 169.394 55.1834 170.426 57.1616C171.457 59.1398 171.973 61.3383 171.973 63.7564C171.973 66.1631 171.457 68.3559 170.426 70.3341C169.394 72.3122 167.985 73.8708 166.196 75.0091C164.407 76.148 162.423 76.7175 160.245 76.7175C158.067 76.7175 156.085 76.148 154.302 75.0091C152.518 73.8708 151.113 72.3122 150.088 70.3341C149.061 68.3559 148.548 66.1631 148.548 63.7564C148.548 61.3383 149.061 59.1398 150.088 57.1616Z" fill="#D8223A"/>
<path fill-rule="evenodd" clip-rule="evenodd" d="M178.918 62.3832H182.959C183.548 62.3832 184.085 62.236 184.569 61.9427C185.053 61.6494 185.437 61.2475 185.721 60.7365C186.005 60.2254 186.148 59.6591 186.148 59.037C186.148 58.392 186.005 57.8161 185.721 57.3114C185.437 56.8067 185.05 56.4131 184.561 56.1313C184.072 55.8494 183.527 55.7091 182.927 55.7091H178.918V62.3832ZM174.656 76.3829V51.1128H183.132C184.49 51.1128 185.721 51.4499 186.826 52.1247C187.931 52.8002 188.805 53.7423 189.446 54.9511C190.088 56.1611 190.409 57.5222 190.409 59.037C190.409 60.2813 190.138 61.4113 189.597 62.4271C189.054 63.4422 188.37 64.2408 187.544 64.8217C186.718 65.4026 185.905 65.6997 185.106 65.7111L184.6 65.7289V65.7638C185.179 65.8114 185.658 65.9485 186.037 66.1777C186.416 66.4069 186.737 66.7389 187 67.1725L192.887 76.3829H189.368C188.863 76.3829 188.415 76.2801 188.026 76.0744C187.636 75.8693 187.278 75.4846 186.952 74.9215L181.87 66.9789H178.918V76.3829H174.656Z" fill="#464B4C"/>
<path fill-rule="evenodd" clip-rule="evenodd" d="M194.419 76.3829H198.681V51.1299H194.419V76.3829Z" fill="#464B4C"/>
<path fill-rule="evenodd" clip-rule="evenodd" d="M222.168 51.1128V76.3829H218.98C218.433 76.3829 217.943 76.0306 217.511 75.3265L206.699 57.5927H206.62C206.967 58.5558 207.141 59.5829 207.141 60.6749L207.125 76.3829H202.879V51.1128H206.257C206.762 51.1128 207.18 51.2207 207.512 51.4385C207.843 51.6556 208.177 52.0346 208.515 52.5742L218.475 68.9336H218.538C218.127 67.8772 217.922 66.7916 217.922 65.6762L217.938 51.1128H222.168Z" fill="#464B4C"/>
<mask id="mask1_1_64" style="mask-type:alpha" maskUnits="userSpaceOnUse" x="90" y="17" width="159" height="60">
<path d="M90.2429 17.9464H248.276V76.7175H90.2429V17.9464Z" fill="white"/>
</mask>
<g mask="url(#mask1_1_64)">
<path fill-rule="evenodd" clip-rule="evenodd" d="M230.1 67.9921C230.757 69.2656 231.654 70.2693 232.791 71.0032C233.928 71.7364 235.185 72.104 236.564 72.104C237.953 72.104 239.215 71.7364 240.352 71.0032C241.488 70.2693 242.383 69.2656 243.035 67.9921C243.688 66.718 244.014 65.3061 244.014 63.7564C244.014 62.1953 243.688 60.7777 243.035 59.5036C242.383 58.23 241.488 57.2264 240.352 56.4925C239.215 55.7586 237.953 55.3916 236.564 55.3916C235.185 55.3916 233.928 55.7586 232.791 56.4925C231.654 57.2264 230.757 58.2332 230.1 59.5124C229.442 60.7923 229.114 62.2067 229.114 63.7564C229.114 65.3061 229.442 66.718 230.1 67.9921ZM226.39 57.1616C227.416 55.1834 228.821 53.6249 230.605 52.4859C232.388 51.3477 234.369 50.7782 236.548 50.7782C238.726 50.7782 240.71 51.3477 242.499 52.4859C244.288 53.6249 245.697 55.1834 246.729 57.1616C247.76 59.1398 248.276 61.3383 248.276 63.7564C248.276 66.1631 247.76 68.3559 246.729 70.3341C245.697 72.3122 244.288 73.8708 242.499 75.0091C240.71 76.148 238.726 76.7175 236.548 76.7175C234.369 76.7175 232.388 76.148 230.605 75.0091C228.821 73.8708 227.416 72.3122 226.39 70.3341C225.364 68.3559 224.851 66.1631 224.851 63.7564C224.851 61.3383 225.364 59.1398 226.39 57.1616Z" fill="#464B4C"/>
<path fill-rule="evenodd" clip-rule="evenodd" d="M94.5484 34.1198C94.9172 34.8607 95.4407 35.4365 96.1184 35.8485C96.7962 36.2605 97.5786 36.4662 98.4669 36.4662C99.3552 36.4662 100.138 36.2605 100.815 35.8485C101.493 35.4365 102.019 34.8607 102.393 34.1198C102.767 33.3796 102.953 32.5295 102.953 31.5703V17.9464H106.739V31.5703C106.739 33.3535 106.393 34.9362 105.702 36.3176C105.01 37.6997 104.038 38.7732 102.785 39.5395C101.532 40.3064 100.093 40.6892 98.4669 40.6892C96.8406 40.6892 95.4037 40.3064 94.1558 39.5395C92.9079 38.7732 91.9376 37.6997 91.2462 36.3176C90.5543 34.9362 90.2089 33.3535 90.2089 31.5703V17.9464H93.9942V31.5703C93.9942 32.5295 94.1785 33.3796 94.5484 34.1198Z" fill="#D8223A"/>
</g>
<path fill-rule="evenodd" clip-rule="evenodd" d="M127.588 17.9464V40.3921H124.756C124.269 40.3921 123.835 40.0798 123.452 39.4538L113.848 23.7026H113.778C114.086 24.5577 114.24 25.47 114.24 26.44L114.226 40.3921H110.454V17.9464H113.455C113.903 17.9464 114.275 18.0429 114.57 18.2359C114.864 18.4289 115.161 18.7647 115.46 19.2447L124.307 33.7763H124.363C123.998 32.8374 123.816 31.8731 123.816 30.8821L123.831 17.9464H127.588Z" fill="#D8223A"/>
<path fill-rule="evenodd" clip-rule="evenodd" d="M131.934 40.3921H135.72V17.9617H131.934V40.3921Z" fill="#D8223A"/>
<path fill-rule="evenodd" clip-rule="evenodd" d="M158.04 17.9464L149.389 40.3921H146.038L137.388 17.9464H140.024C140.491 17.9464 140.897 18.074 141.243 18.3299C141.589 18.5851 141.851 18.9526 142.029 19.4326L147.048 32.5403C147.385 33.3847 147.585 34.4277 147.651 35.6688H147.763C147.847 34.4277 148.048 33.3847 148.366 32.5403L153.385 19.4326C153.572 18.9526 153.839 18.5851 154.185 18.3299C154.53 18.074 154.932 17.9464 155.39 17.9464H158.04Z" fill="#464B4C"/>
<path fill-rule="evenodd" clip-rule="evenodd" d="M159.708 40.3921V17.9464H172.678V22.0291H163.494V26.9873H170.953V30.9132H163.494V36.31H172.678V40.3921H159.708Z" fill="#464B4C"/>
<path fill-rule="evenodd" clip-rule="evenodd" d="M179.617 27.9567H183.207C183.73 27.9567 184.206 27.8272 184.637 27.5663C185.067 27.3054 185.408 26.9479 185.66 26.4946C185.912 26.0407 186.039 25.5379 186.039 24.985C186.039 24.4117 185.912 23.9007 185.66 23.4525C185.408 23.0042 185.065 22.6544 184.629 22.4043C184.195 22.1542 183.711 22.0291 183.178 22.0291H179.617V27.9567ZM175.832 40.3921V17.9464H183.361C184.567 17.9464 185.66 18.2461 186.642 18.8454C187.623 19.4459 188.399 20.2827 188.969 21.3562C189.539 22.4303 189.824 23.6397 189.824 24.985C189.824 26.0909 189.583 27.0939 189.103 27.9961C188.621 28.8982 188.013 29.6073 187.279 30.1234C186.546 30.6396 185.824 30.903 185.114 30.9132L184.665 30.9291V30.9602C185.178 31.0021 185.604 31.1246 185.941 31.3277C186.277 31.5309 186.562 31.8261 186.796 32.2115L192.025 40.3921H188.899C188.45 40.3921 188.053 40.3013 187.707 40.1191C187.361 39.9363 187.043 39.5947 186.754 39.0945L182.239 32.0394H179.617V40.3921H175.832Z" fill="#464B4C"/>
<path fill-rule="evenodd" clip-rule="evenodd" d="M195.349 39.7198C194.18 39.0735 193.142 38.2285 192.236 37.1861L193.049 35.5907C193.199 35.3089 193.404 35.0898 193.666 34.933C193.928 34.7768 194.213 34.6988 194.521 34.6988C194.951 34.6988 195.349 34.834 195.713 35.1051C196.255 35.533 196.844 35.8929 197.48 36.1849C198.115 36.4763 198.671 36.623 199.148 36.623C200.12 36.623 200.899 36.3748 201.483 35.8796C202.067 35.3844 202.359 34.6619 202.359 33.7135C202.359 33.0666 202.1 32.4933 201.581 31.993C201.062 31.4922 200.242 31.002 199.12 30.5221C197.12 29.7298 195.645 28.7966 194.697 27.7224C193.748 26.6489 193.274 25.376 193.274 23.9057C193.274 22.6855 193.535 21.6012 194.059 20.6521C194.582 19.7036 195.318 18.966 196.267 18.439C197.216 17.9121 198.302 17.6493 199.527 17.6493C200.517 17.6493 201.532 17.8632 202.569 18.2905C203.607 18.7184 204.448 19.3227 205.093 20.1049L204.392 21.4812C204.177 21.8882 203.923 22.191 203.628 22.3884C203.333 22.5871 203.018 22.6855 202.681 22.6855C202.382 22.6855 202.107 22.6182 201.854 22.4824C201.48 22.2221 201.081 22.0291 200.656 21.904C200.23 21.7783 199.854 21.7161 199.527 21.7161C198.798 21.7161 198.204 21.9116 197.746 22.3021C197.288 22.6938 197.059 23.2233 197.059 23.8905C197.059 24.4326 197.307 24.9145 197.802 25.3373C198.297 25.7595 199.083 26.1689 200.158 26.5651C202.167 27.2323 203.668 28.1579 204.658 29.3413C205.649 30.5253 206.145 31.9772 206.145 33.6976C206.145 35.0638 205.845 36.2757 205.247 37.3347C204.649 38.393 203.812 39.217 202.737 39.8055C201.663 40.3946 200.434 40.6892 199.05 40.6892C197.751 40.6892 196.517 40.3667 195.349 39.7198Z" fill="#464B4C"/>
<path fill-rule="evenodd" clip-rule="evenodd" d="M209.103 40.3921H212.888V17.9617H209.103V40.3921Z" fill="#464B4C"/>
<path fill-rule="evenodd" clip-rule="evenodd" d="M215.146 17.9464H230.667V21.9821H224.806V40.3921H221.021V21.9821H215.146V17.9464Z" fill="#464B4C"/>
<path fill-rule="evenodd" clip-rule="evenodd" d="M241.028 32.2584L238.505 25.7519C238.299 25.2091 238.154 24.7348 238.07 24.3279C237.986 23.9216 237.944 23.4728 237.944 22.9833H237.804C237.794 23.4836 237.747 23.9375 237.664 24.3438C237.579 24.7507 237.434 25.2199 237.228 25.7519L234.705 32.2584H241.028ZM248.333 40.3921H245.627C245.178 40.3921 244.774 40.2594 244.414 39.9934C244.054 39.7274 243.785 39.3548 243.608 38.8748L242.416 35.7939H233.331L232.139 38.8748C231.952 39.3548 231.679 39.7274 231.319 39.9934C230.959 40.2594 230.555 40.3921 230.106 40.3921H227.4L236.191 17.9464H239.542L248.333 40.3921Z" fill="#464B4C"/>
<path fill-rule="evenodd" clip-rule="evenodd" d="M233.021 9.78286C233.346 10.7307 234.053 12.4213 234.475 13.4472C234.74 14.0935 235.338 15.0229 236.218 15.0229C237.365 15.0223 238.037 15.0197 238.373 15.0197C238.128 14.437 237.307 12.1705 236.794 11.085C236.285 10.0108 235.501 9.77081 234.893 9.76446C234.265 9.75684 233.021 9.78286 233.021 9.78286Z" fill="#464B4C"/>
<path fill-rule="evenodd" clip-rule="evenodd" d="M5.80377 43.6249C5.74701 43.5121 5.66958 43.4229 5.57231 43.3578C5.47505 43.2926 5.36758 43.2609 5.24993 43.2628C5.12814 43.2646 5.01985 43.3 4.92533 43.3685C4.83082 43.4368 4.7578 43.529 4.706 43.6449C4.65447 43.7608 4.6294 43.8893 4.63133 44.0304L4.64373 44.9729L5.90462 44.9523L5.89195 44.0021C5.89029 43.8634 5.86081 43.738 5.80377 43.6249Z" fill="#D8223A"/>
<path fill-rule="evenodd" clip-rule="evenodd" d="M10.3384 24.1673C10.2144 24.1467 10.1103 24.1209 10.0262 24.0896C9.9419 24.0582 9.85538 24.0121 9.76611 23.9515L9.74902 23.9832C9.83885 24.0474 9.91518 24.1138 9.97855 24.183C10.0422 24.2525 10.1094 24.3432 10.1805 24.4557L11.0496 25.8307L11.8316 24.4016L10.3384 24.1673Z" fill="#D8223A"/>
<path fill-rule="evenodd" clip-rule="evenodd" d="M70.6573 36.1094C70.7336 36.2075 70.8251 36.2773 70.9323 36.3191C71.0395 36.3612 71.1505 36.368 71.2654 36.3394C71.3844 36.3099 71.4839 36.2511 71.5641 36.1629C71.6443 36.0747 71.6994 35.968 71.7289 35.8429C71.7584 35.7175 71.7597 35.5862 71.7322 35.4485L71.5495 34.5278L70.3184 34.8325L70.5027 35.7599C70.5297 35.8952 70.581 36.012 70.6573 36.1094Z" fill="#D8223A"/>
<path fill-rule="evenodd" clip-rule="evenodd" d="M66.482 23.5967C66.5522 23.4808 66.6181 23.3874 66.6798 23.3164C66.7415 23.2451 66.8162 23.1777 66.9035 23.1144L66.8854 23.0834C66.795 23.1461 66.7079 23.194 66.6244 23.2279C66.5409 23.2617 66.4384 23.2903 66.3172 23.3133L64.8301 23.5934L65.6468 24.9976L66.482 23.5967Z" fill="#D8223A"/>
<path fill-rule="evenodd" clip-rule="evenodd" d="M44.1438 6.38484C43.9366 6.19486 43.6958 6.07743 43.4216 6.03286L42.4208 5.87024L41.9714 9.31196L42.9722 9.47457C43.2464 9.51915 43.5073 9.4841 43.7539 9.36913C44.0011 9.25416 44.2075 9.07587 44.3734 8.83394C44.5398 8.59201 44.6434 8.31319 44.6847 7.99749C44.7261 7.68147 44.6979 7.38114 44.6007 7.09648C44.5031 6.81213 44.351 6.57481 44.1438 6.38484Z" fill="#D8223A"/>
<path fill-rule="evenodd" clip-rule="evenodd" d="M41.6107 78.6704C41.5162 78.4076 41.3916 78.2111 41.2365 78.0805C41.0816 77.9502 40.9045 77.893 40.7055 77.9087C40.5063 77.9243 40.3388 78.0089 40.2027 78.162C40.0668 78.3157 39.9687 78.529 39.9084 78.8029C39.8478 79.0771 39.8293 79.399 39.8527 79.7694C39.8761 80.137 39.9348 80.4521 40.0293 80.7134C40.1238 80.9753 40.2478 81.1715 40.4019 81.3021C40.5556 81.4325 40.7323 81.4899 40.9315 81.474C41.1304 81.4583 41.2985 81.3737 41.4357 81.2203C41.5727 81.0669 41.6713 80.8533 41.7319 80.5794C41.7923 80.3055 41.8107 79.9846 41.7876 79.6166C41.7642 79.249 41.7052 78.9336 41.6107 78.6704Z" fill="#D8223A"/>
<path fill-rule="evenodd" clip-rule="evenodd" d="M35.8827 78.521L34.7775 79.9714C34.7449 80.0129 34.7069 80.051 34.6639 80.086C34.6207 80.1211 34.5807 80.1454 34.5441 80.1586L35.8422 80.2991L36.021 78.2373C36.008 78.2834 35.9882 78.3335 35.9612 78.3876C35.9342 78.442 35.908 78.4863 35.8827 78.521Z" fill="#D8223A"/>
<path fill-rule="evenodd" clip-rule="evenodd" d="M46.1109 77.4632C46.1012 77.5244 46.0897 77.576 46.0759 77.6178L45.4587 79.3931C45.4402 79.4438 45.4157 79.4936 45.3851 79.5425C45.3548 79.5917 45.3242 79.6292 45.2933 79.6553L46.5608 79.3126L46.1233 77.2997C46.1244 77.3476 46.1205 77.4024 46.1109 77.4632Z" fill="#D8223A"/>
<path fill-rule="evenodd" clip-rule="evenodd" d="M46.5137 53.2509C46.0211 52.4972 44.435 49.425 44.9594 47.5046C45.3972 45.9009 47.7292 45.6159 49.3138 46.0192C47.1073 44.5145 44.2744 45.3322 43.9388 47.6236C43.6583 49.5366 44.7084 52.0813 45.2283 52.9598C45.6339 53.1224 46.19 53.171 46.5137 53.2509Z" fill="#D8223A"/>
<path fill-rule="evenodd" clip-rule="evenodd" d="M51.4965 44.0135C51.4312 43.9953 51.165 44.1543 51.3661 44.4396C53.5352 47.5204 53.8548 52.501 53.1448 54.5624C56.7902 51.5889 55.7057 45.1825 51.4965 44.0135Z" fill="#D8223A"/>
<path fill-rule="evenodd" clip-rule="evenodd" d="M44.8109 56.479C45.4466 56.4354 46.4457 55.9906 46.8177 55.5221C46.142 55.5313 44.3089 55.4166 44.1157 55.511C43.4852 55.7034 43.0642 56.0019 42.3701 56.4431C42.6316 56.3991 43.9316 56.5396 44.8109 56.479Z" fill="#D8223A"/>
<path fill-rule="evenodd" clip-rule="evenodd" d="M31.3302 36.3554C31.4147 36.1344 31.2836 36.0812 31.2591 35.9548C31.2343 35.8273 31.3056 35.7354 31.1585 35.6693C31.0425 35.6173 30.8788 35.9217 30.889 36.2512C30.8973 36.5205 31.2271 36.6244 31.3302 36.3554Z" fill="#D8223A"/>
<path fill-rule="evenodd" clip-rule="evenodd" d="M31.029 54.1265C32.08 54.0592 32.5765 53.2473 33.5329 52.9323C32.434 53.0832 30.6912 53.0786 30.3267 53.1527C30.0183 53.2151 28.5199 53.8809 27.9777 54.1173C28.4714 54.0786 30.6295 54.1523 31.029 54.1265Z" fill="#D8223A"/>
<path fill-rule="evenodd" clip-rule="evenodd" d="M31.1591 52.034C31.0502 51.4419 30.9874 51.2218 30.8995 50.8409C28.6988 49.6955 29.3873 45.9842 31.4051 45.5151C27.4977 45.556 28.0168 51.7509 31.1591 52.034Z" fill="#D8223A"/>
<path fill-rule="evenodd" clip-rule="evenodd" d="M28.7273 39.2637C28.81 39.0424 28.7519 38.7347 28.7747 38.5856C28.8271 38.2446 29.0379 37.8905 28.859 37.8011C28.6783 37.7107 28.6532 38.1291 28.4664 38.3227C28.3121 38.4826 27.6378 39.0568 28.0371 39.5822C28.1873 39.7798 28.6138 39.568 28.7273 39.2637Z" fill="#D8223A"/>
<path fill-rule="evenodd" clip-rule="evenodd" d="M38.5478 20.6069C38.4613 20.5863 38.2254 20.6622 38.3599 20.7634C38.4668 20.8433 38.5663 21.222 38.7735 21.2435C38.8796 21.2543 38.8076 21.1052 38.8853 21.0991C38.9628 21.0929 39.0694 21.3431 39.1342 21.2601C39.2138 21.1581 38.868 20.6831 38.5478 20.6069Z" fill="#D8223A"/>
<path fill-rule="evenodd" clip-rule="evenodd" d="M73.3157 44.9156C73.2702 44.9906 73.1944 45.0638 73.0878 45.1354L69.8683 47.2507L69.8675 47.2654C70.0722 47.1834 70.2797 47.1499 70.4899 47.1652L73.2355 47.3666L73.1782 48.3595L68.4134 48.0161L68.457 47.2679C68.4644 47.1394 68.5374 47.0294 68.676 46.9378L72.1664 44.6414L72.1675 44.6227C71.9812 44.6912 71.785 44.718 71.5792 44.7032L68.6179 44.4862L68.6755 43.4896L73.4399 43.833L73.3942 44.6258C73.3873 44.7441 73.3611 44.8409 73.3157 44.9156ZM71.9498 54.7757L71.1072 54.5417L71.6329 52.1824L70.6092 51.8987L70.1822 53.815L69.3721 53.5903L69.7989 51.674L68.6848 51.365L68.1591 53.7244L67.3165 53.4907L68.0588 50.1588L72.6924 51.4434L71.9498 54.7757ZM70.8614 58.1688C70.8176 58.277 70.7627 58.3573 70.6966 58.4095C70.6305 58.4618 70.5362 58.5005 70.4142 58.526L66.7334 59.2435L66.7279 59.2571C66.9453 59.2607 67.1503 59.3105 67.3424 59.4074L69.8493 60.6727L69.4828 61.5795L65.1306 59.3899L65.4067 58.7062C65.4541 58.5891 65.5574 58.5147 65.7159 58.483L69.7071 57.7019L69.7137 57.685C69.5178 57.6761 69.326 57.6241 69.1381 57.5297L66.4339 56.1652L66.8018 55.2549L71.1543 57.4446L70.8614 58.1688ZM67.6686 64.6889C67.6342 64.9665 67.5353 65.2395 67.3713 65.5072C67.2388 65.724 67.0655 65.917 66.8514 66.0867C66.6375 66.2564 66.4188 66.3594 66.195 66.3956L66.0471 66.0581C66.0044 65.957 65.9853 65.8607 65.99 65.7698C65.9947 65.6788 66.0192 65.5967 66.0644 65.5232C66.1044 65.4577 66.1531 65.4064 66.2107 65.3695C66.3066 65.3225 66.394 65.261 66.4728 65.1848C66.5519 65.1085 66.613 65.0347 66.6568 64.9631C66.7544 64.8039 66.7996 64.6477 66.7921 64.4952C66.7847 64.3428 66.7221 64.222 66.605 64.1325C66.51 64.06 66.392 64.0498 66.2515 64.1015C66.111 64.1534 65.9341 64.2702 65.7205 64.4522C65.3345 64.8023 64.9713 65.0065 64.6308 65.0649C64.2902 65.123 63.9689 65.0372 63.6666 64.807C63.4266 64.6241 63.2539 64.3966 63.1478 64.1239C63.042 63.8515 63.0092 63.5586 63.0494 63.2447C63.0899 62.9309 63.2023 62.6225 63.3875 62.3203C63.5614 62.036 63.7832 61.8094 64.0532 61.6407C64.3233 61.4716 64.6104 61.3579 64.9148 61.2992L65.0862 61.6905C65.1157 61.7609 65.1267 61.835 65.119 61.913C65.1116 61.9914 65.0871 62.0643 65.0457 62.1316C64.9884 62.2257 64.9115 62.2942 64.8151 62.3379C64.6674 62.399 64.5255 62.4796 64.3891 62.5795C64.2527 62.6794 64.1527 62.7815 64.0888 62.8857C63.959 63.0984 63.8981 63.3016 63.9072 63.4956C63.916 63.6895 64.0036 63.85 64.1703 63.977C64.2838 64.0637 64.4194 64.0836 64.5768 64.0372C64.7341 63.9908 64.93 63.8771 65.1642 63.696C65.5712 63.3646 65.9324 63.1669 66.2479 63.1033C66.5637 63.0397 66.8505 63.1061 67.1087 63.3028C67.3231 63.4661 67.4785 63.6683 67.5755 63.9099C67.6719 64.1513 67.7031 64.411 67.6686 64.6889ZM64.3864 69.6139L60.8084 66.0931L61.4025 65.3415L64.9804 68.8623L64.3864 69.6139ZM62.1172 72.0181C62.023 72.2782 61.867 72.5155 61.6494 72.7307C61.4733 72.9043 61.2631 73.0442 61.0184 73.1503C60.7737 73.2563 60.5389 73.2966 60.3141 73.2708L60.2446 72.9031C60.2256 72.7931 60.2281 72.6947 60.2524 72.608C60.2769 72.521 60.319 72.4478 60.3788 72.3891C60.432 72.3366 60.4904 72.3 60.5546 72.28C60.6577 72.2606 60.7558 72.2247 60.8492 72.1724C60.9423 72.1198 61.0181 72.0651 61.0762 72.0076C61.2055 71.8801 61.2834 71.7411 61.3096 71.5911C61.3361 71.4414 61.3022 71.3071 61.2079 71.1884C61.1316 71.0922 61.0195 71.0498 60.8721 71.0617C60.7246 71.0737 60.5273 71.1386 60.2805 71.2569C59.8291 71.4909 59.4321 71.5896 59.0893 71.553C58.7465 71.5164 58.4536 71.3455 58.2111 71.0399C58.0185 70.7971 57.9009 70.529 57.8579 70.2361C57.8149 69.9428 57.8474 69.6498 57.9554 69.3566C58.0634 69.0633 58.2403 68.7952 58.4861 68.5527C58.717 68.3246 58.9818 68.1654 59.2805 68.0756C59.5792 67.9852 59.8828 67.9533 60.1909 67.9797L60.2714 68.4058C60.2843 68.482 60.2788 68.557 60.2543 68.6308C60.2298 68.7046 60.1904 68.7685 60.1352 68.8226C60.0592 68.8979 59.9694 68.9434 59.8663 68.9594C59.7095 68.9785 59.5544 69.0178 59.4001 69.0774C59.2461 69.1371 59.1268 69.2087 59.0419 69.2923C58.8691 69.4629 58.7658 69.6437 58.7319 69.834C58.698 70.0246 58.7479 70.2041 58.8815 70.3729C58.9727 70.4875 59.0998 70.5441 59.2623 70.5419C59.4252 70.5401 59.6401 70.4832 59.9071 70.3713C60.3739 70.1614 60.7676 70.0685 61.0878 70.0931C61.4077 70.1174 61.6714 70.26 61.8786 70.5216C62.0506 70.7384 62.1569 70.9769 62.1977 71.2376C62.2385 71.498 62.2115 71.758 62.1172 72.0181ZM46.6168 64.1196C46.6628 64.3345 46.9433 65.6456 47.0086 65.9846C46.6818 65.8365 46.2437 65.7854 46.0122 65.7627C45.9309 65.3969 45.7036 64.2804 45.6708 64.1196C43.5552 64.1196 42.0025 64.1196 42.0025 64.1196V61.0917C42.0025 61.0917 55.7767 61.0917 57.1304 61.0917C58.9127 61.0917 58.8468 64.1196 57.2393 64.1196C56.5019 64.1196 50.8265 64.1196 46.6168 64.1196ZM47.8137 81.0432L46.986 81.2673L46.7617 80.236L44.6664 80.8028L44.4548 80.0807C44.443 80.038 44.4383 79.9879 44.4408 79.9301C44.443 79.8723 44.4521 79.8167 44.4678 79.7641L45.6066 76.4195C45.6342 76.3356 45.6733 76.2628 45.7251 76.2003C45.7766 76.1379 45.8268 76.1001 45.8766 76.0866L46.6881 75.8671L47.3886 79.0881L48.0061 78.9212L48.2069 79.8446L47.5894 80.0116L47.8137 81.0432ZM42.5087 81.0242C42.3899 81.4441 42.2006 81.7733 41.941 82.0119C41.6815 82.2507 41.3649 82.385 40.991 82.4146C40.617 82.4441 40.2869 82.3611 40.0012 82.1653C39.7155 81.9694 39.487 81.6731 39.3162 81.2759C39.1454 80.8788 39.042 80.3989 39.0065 79.836C38.9707 79.2707 39.0123 78.7776 39.131 78.3565C39.2501 77.9353 39.4385 77.6046 39.697 77.3648C39.9552 77.1247 40.2712 76.9901 40.6454 76.9606C41.0191 76.931 41.3497 77.015 41.6368 77.2117C41.924 77.4088 42.1529 77.7063 42.3238 78.1044C42.4946 78.5028 42.5979 78.9845 42.6338 79.5498C42.6696 80.1127 42.6277 80.6039 42.5087 81.0242ZM31.0094 69.8426V66.8146H30.0615L30.4511 64.8411C25.9476 64.8411 19.8245 64.8411 19.8245 64.8411V61.8131H18.7336L22.4306 55.053C22.8714 55.0231 22.9869 55.0145 23.5537 54.982C23.1175 55.7748 19.7809 61.8506 19.8245 61.8131C19.8245 61.8131 33.5987 61.8131 34.9521 61.8131C36.7343 61.8131 36.6685 64.8411 35.061 64.8411C34.7135 64.8411 33.2683 64.8411 31.3976 64.8411L31.0094 66.8146C31.0094 66.8146 44.7836 66.8146 46.1373 66.8146C47.9193 66.8146 47.8534 69.8426 46.2461 69.8426C45.0563 69.8426 31.0094 69.8426 31.0094 69.8426ZM37.2402 81.4047L36.6079 81.3365L36.5161 82.393L35.6683 82.3014L35.76 81.2446L33.6141 81.0128L33.6265 80.2535C33.6281 80.2089 33.6386 80.1597 33.6576 80.1059C33.6769 80.0521 33.7017 80.003 33.7323 79.9593L35.792 77.2169C35.8424 77.1478 35.9014 77.0934 35.9683 77.0534C36.0353 77.0131 36.0943 76.9959 36.145 77.0014L36.9763 77.0912L36.69 80.3903L37.3224 80.4588L37.2402 81.4047ZM30.6222 81.4026L29.77 81.153L30.6961 77.2255C30.6478 77.3036 30.5955 77.3602 30.5393 77.3946L30.2483 77.5781C30.1342 77.6445 30.0265 77.6627 29.9259 77.6332C29.8292 77.6049 29.7537 77.5369 29.6989 77.4287L29.5021 77.0217L31.0099 76.0088L31.8079 76.2428L30.6222 81.4026ZM19.1204 70.4217C19.0452 70.7875 18.8802 71.1272 18.6256 71.4414L16.6816 73.8389L16.0153 73.1662L17.9596 70.7691C18.0965 70.6 18.1852 70.4177 18.226 70.2219C18.2665 70.0258 18.2566 69.8315 18.1963 69.6388C18.1356 69.446 18.0274 69.2708 17.8711 69.1128C17.7146 68.9551 17.5476 68.8524 17.3696 68.8045C17.1916 68.7565 17.0169 68.7645 16.8455 68.8287C16.6739 68.8924 16.5198 69.0086 16.3829 69.1777L14.4389 71.5751L13.7727 70.9028L15.7166 68.5054C15.9712 68.1915 16.2578 67.9745 16.5769 67.8543C16.8957 67.7338 17.22 67.7175 17.5498 67.8051C17.8797 67.8927 18.1874 68.0808 18.4737 68.3698C18.76 68.6584 18.9581 68.9812 19.0684 69.3378C19.1786 69.6941 19.1959 70.0556 19.1204 70.4217ZM11.5176 68.0452C11.4534 67.9496 11.417 67.8573 11.4079 67.7676C11.3988 67.6781 11.4137 67.5672 11.4526 67.4353L12.6633 63.4919L12.6553 63.4799C12.5479 63.6908 12.4098 63.8669 12.2412 64.008L10.039 65.8484L9.50365 65.0529L13.3213 61.8546L13.725 62.4541C13.7942 62.5571 13.8027 62.6935 13.7509 62.8638L12.4407 67.1414L12.4506 67.1565C12.552 66.9689 12.6854 66.8063 12.8504 66.668L15.2253 64.6828L15.7629 65.4814L11.945 68.68L11.5176 68.0452ZM7.72556 61.5724L11.9218 59.0397L12.3492 59.9214L8.15321 62.4538L7.72556 61.5724ZM6.54072 58.9244C6.50214 58.8085 6.49415 58.697 6.51675 58.5903C6.53934 58.4833 6.59115 58.388 6.67216 58.3044L8.87458 55.9798C9.01539 55.8267 9.20689 55.6911 9.44909 55.5725L9.43973 55.5451C9.1854 55.626 8.96083 55.6619 8.76629 55.6524L5.73806 55.4843C5.62702 55.4772 5.53168 55.4412 5.45232 55.3764C5.37296 55.3115 5.31427 55.2223 5.27652 55.1086L5.05857 54.4508L10.2484 54.7523L10.5243 55.5845L6.7573 59.5792L6.54072 58.9244ZM4.02555 48.7345L4.87974 48.5606L5.27156 50.9522L6.30899 50.7404L5.99073 48.7979L6.81241 48.6303L7.13066 50.5728L8.25984 50.3426L7.86774 47.951L8.72193 47.7767L9.2755 51.1541L4.57912 52.1123L4.02555 48.7345ZM3.7624 43.9962C3.758 43.6771 3.81806 43.3866 3.94206 43.1247C4.06605 42.8628 4.2413 42.6544 4.4678 42.4997C4.6943 42.3451 4.95055 42.2655 5.23657 42.2606C5.47161 42.2569 5.68598 42.3168 5.87941 42.4413C6.07312 42.5655 6.22605 42.7238 6.33847 42.9163C6.45062 43.109 6.50931 43.299 6.51399 43.4868L6.51868 43.6058H6.52557C6.53245 43.4696 6.55698 43.3565 6.59914 43.2664C6.64129 43.1769 6.70302 43.1004 6.7843 43.0371L8.50591 41.6242L8.51665 42.4518C8.5183 42.5707 8.50012 42.6762 8.46264 42.7681C8.42517 42.8606 8.35353 42.9458 8.248 43.0242L6.76364 44.244L6.77273 44.9381L8.54917 44.9089L8.56239 45.9107L3.78831 45.9894L3.7624 43.9962ZM4.07542 37.8287C4.10959 37.5693 4.1895 37.311 4.31515 37.054C4.44107 36.7967 4.5973 36.5975 4.78385 36.4552L5.04947 36.6867C5.12773 36.7568 5.18256 36.8339 5.21397 36.9179C5.24566 37.0018 5.25558 37.0882 5.24401 37.1761C5.23381 37.2545 5.20984 37.3242 5.17264 37.3857C5.10513 37.4746 5.05058 37.5726 5.00952 37.6796C4.96846 37.7869 4.94256 37.8831 4.93126 37.9689C4.90591 38.1601 4.92686 38.3221 4.99326 38.4555C5.05967 38.5892 5.16327 38.6673 5.3038 38.6901C5.41788 38.7088 5.52782 38.6608 5.63363 38.5456C5.73971 38.4303 5.85296 38.2388 5.97337 37.9707C6.18306 37.4675 6.42968 37.1063 6.71266 36.8877C6.9962 36.6689 7.31858 36.5892 7.68092 36.6486C7.96832 36.6956 8.213 36.8158 8.41525 37.0092C8.61723 37.2022 8.76189 37.4497 8.84868 37.7515C8.93575 38.0534 8.95559 38.3854 8.90765 38.7478C8.86301 39.0881 8.75252 39.4002 8.57617 39.6839C8.39982 39.9679 8.18627 40.2102 7.93525 40.4118L7.62774 40.1441C7.57374 40.0949 7.53461 40.0334 7.51064 39.9596C7.48667 39.8859 7.48005 39.8081 7.4908 39.7275C7.50568 39.615 7.54784 39.5154 7.61755 39.4294C7.72611 39.3021 7.82228 39.1604 7.90549 39.0039C7.98898 38.8474 8.03886 38.707 8.05511 38.5822C8.08873 38.3273 8.06338 38.1152 7.97934 37.9449C7.8953 37.7749 7.75339 37.6735 7.55362 37.6409C7.4175 37.6184 7.288 37.6667 7.16455 37.7851C7.04139 37.904 6.90995 38.1017 6.77053 38.379C6.53466 38.8754 6.2875 39.2296 6.02876 39.4414C5.77002 39.6525 5.48594 39.7331 5.1765 39.6824C4.91969 39.6402 4.70063 39.5345 4.51877 39.3645C4.33719 39.1948 4.20741 38.9766 4.12915 38.7097C4.05118 38.4432 4.03299 38.1493 4.07542 37.8287ZM5.14839 32.679L9.74613 34.1005L9.50613 35.0664L4.90839 33.6449L5.14839 32.679ZM7.18246 26.6256L7.97383 26.9966L7.43514 28.427L11.0453 30.119L10.6973 31.043L7.08713 29.3508L6.54706 30.7845L5.75569 30.4138L7.18246 26.6256ZM9.04955 22.9678L14.2116 23.7569L13.8768 24.3683C13.8214 24.4698 13.7473 24.5445 13.6545 24.593C13.5616 24.6416 13.4607 24.656 13.3516 24.637L12.6449 24.5251L11.5215 26.578L11.9334 27.2284C11.9973 27.3299 12.0312 27.4378 12.0351 27.5518C12.0387 27.6662 12.013 27.7741 11.9574 27.8752L11.6229 28.4869L8.63514 23.7246L9.04955 22.9678ZM11.9114 18.7554C11.975 18.484 12.102 18.2263 12.293 17.9816C12.4473 17.784 12.6399 17.6149 12.8703 17.4747C13.1003 17.3343 13.3288 17.2608 13.5547 17.2537L13.666 17.6085C13.6977 17.7148 13.7065 17.8126 13.6925 17.9023C13.6782 17.9921 13.6448 18.0705 13.5925 18.1375C13.5459 18.1971 13.4922 18.2417 13.4307 18.2709C13.3307 18.305 13.2376 18.3545 13.151 18.42C13.0648 18.4855 12.9962 18.5507 12.9452 18.6161C12.8314 18.7612 12.7702 18.9103 12.7614 19.0628C12.7526 19.2153 12.8019 19.3435 12.9088 19.4474C12.9959 19.5319 13.1119 19.5577 13.2568 19.5248C13.4018 19.4916 13.5897 19.3991 13.8209 19.246C14.2414 18.9491 14.6238 18.7941 14.9677 18.7806C15.3121 18.7677 15.6221 18.8953 15.8979 19.1633C16.1173 19.3764 16.265 19.6253 16.3413 19.9097C16.4179 20.1941 16.4193 20.4895 16.3463 20.7956C16.2732 21.1021 16.1288 21.3932 15.9131 21.6693C15.7106 21.9287 15.4662 22.1246 15.1804 22.2567C14.8947 22.3892 14.5974 22.4649 14.2888 22.483L14.1598 22.072C14.138 21.9982 14.1347 21.9229 14.1504 21.8464C14.1661 21.7698 14.1984 21.7006 14.2463 21.6392C14.3133 21.5534 14.397 21.4953 14.4973 21.4646C14.6505 21.4231 14.7999 21.3619 14.9459 21.2804C15.0917 21.1993 15.2019 21.1107 15.2763 21.0157C15.4279 20.8218 15.5094 20.6281 15.521 20.4341C15.5328 20.2402 15.4626 20.0696 15.3105 19.9214C15.2066 19.8206 15.0743 19.7827 14.9131 19.8086C14.752 19.8338 14.5456 19.9211 14.2937 20.0702C13.8548 20.3459 13.4754 20.4947 13.1549 20.5162C12.835 20.5383 12.557 20.4347 12.3211 20.2054C12.1255 20.0148 11.9926 19.7938 11.9218 19.5414C11.8516 19.289 11.848 19.0271 11.9114 18.7554ZM17.646 53.5316C17.5264 53.5252 17.3713 53.559 17.3633 53.3389C17.7083 53.3146 18.1315 52.7828 18.4495 52.5495C18.8182 52.2786 19.6963 52.1369 20.2281 51.9666C20.7599 51.7966 22.5766 50.5501 23.673 50.4253C23.6498 50.9967 24.4743 53.1138 24.9195 53.6235C24.1158 53.9798 21.5312 53.9697 21.2939 54.0179C21.6381 53.559 20.8922 52.843 20.3659 54.0401C20.2201 54.3721 20.1945 54.748 19.7445 55.2706C19.2979 55.2706 17.1004 55.2399 16.3917 55.2522C16.6527 54.183 17.7813 53.5913 17.646 53.5316ZM19.7873 42.2612C19.8341 42.2157 19.9129 42.1699 19.9614 42.1939C20.4885 42.4524 21.7629 42.9608 22.8384 43.003C22.7226 43.4152 22.6631 44.0343 22.6683 44.307C21.3499 44.0933 19.4486 42.591 19.7873 42.2612ZM29.0712 60.4135C28.4319 60.6911 27.4518 60.605 27.2418 60.3972C27.4783 60.1494 28.0007 59.6318 27.9525 59.4166C27.6025 59.3662 26.7897 59.6966 26.5957 59.7827C26.3992 59.3201 26.6086 58.7295 27.0525 58.3536C27.4322 58.5482 27.9381 58.7664 28.1737 58.7188C28.2925 58.3625 28.1503 57.9014 28.1081 57.7302C28.2837 57.6352 29.4597 57.5018 29.8311 57.7698C29.6716 57.9334 29.1514 58.42 29.137 58.7397C29.4261 58.7449 30.1042 58.5482 30.4679 58.3708C30.7046 58.8002 30.4897 59.4277 30.054 59.807C29.7581 59.606 29.1811 59.436 28.8777 59.4609C28.8326 59.8076 28.9477 60.1159 29.0712 60.4135ZM36.7693 56.4738C36.7693 56.4738 36.4376 61.0237 36.4318 61.3468C36.1541 61.0631 35.854 60.9094 35.5401 60.834C35.563 60.4556 35.8383 56.4882 35.8383 56.4882L36.7693 56.4738ZM57.4261 60.2146C56.996 60.0914 56.6422 60.0837 56.2856 60.1273C56.0214 59.6662 54.4422 56.7864 54.1997 56.3296C54.4422 56.1756 54.9313 55.721 54.9313 55.721C55.2135 56.1787 57.1833 59.7913 57.4261 60.2146ZM25.2359 36.8831C25.9542 36.3074 28.4586 35.2376 29.4046 34.9597C29.8973 34.8152 30.5867 34.3922 31.0843 34.2324C31.3995 34.1312 31.715 34.2425 31.8826 34.454C31.9352 34.5207 31.885 34.7267 31.9641 34.7931C32.0399 34.857 32.9809 35.5929 32.9376 35.8797C32.8398 36.529 32.6745 36.5856 32.556 36.8416C32.2675 37.4641 32.0286 38.1613 31.4847 39.2348C30.126 43.6786 27.7695 41.2126 27.1917 40.418C26.8445 41.0399 26.1127 43.7078 25.6525 44.6184C27.1812 44.0743 27.3848 42.8333 27.3989 42.113C27.5871 42.3239 28.6827 43.0528 29.7413 42.8333C29.083 43.8443 25.6941 46.6841 27.6596 50.9595C27.71 49.6983 27.583 48.6795 28.1445 46.7948C28.7485 44.7675 31.2075 43.4819 31.7343 41.2062C31.7343 41.2062 31.8732 41.2535 32.154 41.3651C33.0966 41.7395 34.441 43.2901 34.8482 43.346C35.3754 43.4189 46.6438 43.3743 47.5068 43.3915C48.5227 43.4115 50.303 42.2723 52.2541 43.16C57.9571 45.7546 57.1522 54.4043 52.485 56.0683C52.7647 55.4987 53.0177 54.9611 53.1447 54.5623C52.2095 55.2377 51.9775 55.1095 51.2037 55.4443C51.0051 55.5304 50.7535 55.8762 50.8411 56.4726C50.9447 57.1784 51.1255 57.9152 50.762 58.4578C50.4705 58.8663 45.0652 58.3149 44.573 58.6505C43.9181 59.0972 43.7224 59.4885 42.6715 59.4965C42.7448 59.2896 42.7897 58.7904 42.3202 58.8402C41.4792 58.93 41.9967 60.2826 41.307 60.5669C41.145 60.6336 41.0191 60.5626 40.9262 60.6035C40.5821 60.755 40.5559 61.2251 40.5192 61.5272C40.315 61.5488 37.4251 61.5558 37.1083 61.5355C37.4323 60.4366 38.1074 59.8135 38.2835 59.7169C38.1429 59.6674 38.0572 59.7209 38.0247 59.4516C38.9657 59.3228 38.977 58.724 39.5295 58.3136C39.8632 58.0659 40.304 57.8043 40.778 57.4806C41.2153 57.1818 41.9639 56.7025 42.3701 56.4431C37.6676 55.7947 38.0528 52.0352 38.9343 49.8412C40.6724 49.535 40.77 47.3451 40.6553 46.8317C40.5407 46.3183 40.4768 45.4628 40.4754 44.4373C39.7416 46.7164 39.0467 46.6765 37.9677 49.5593C36.7214 52.8882 37.8332 55.4185 39.3275 56.4314L36.776 56.455C36.9035 54.0754 36.3155 53.5476 36.0171 53.0339C35.6864 52.4652 36.0471 48.8692 35.5346 48.0546C35.3321 47.7327 34.3377 47.204 33.9505 47.2037C35.4644 48.6435 34.5642 51.824 35.1359 53.3896C35.3792 54.056 35.9606 54.2497 35.8554 56.4225C35.2274 56.4889 28.692 56.4935 28.3448 56.5039C28.9235 55.9733 27.9993 55.0173 27.3363 56.499C27.2011 56.8015 27.1184 56.9048 26.7456 57.2079C26.4012 57.179 23.8295 57.2491 23.5283 57.2027C23.5931 56.7732 24.4803 55.8399 24.903 55.5537C24.8159 55.4612 24.5622 55.5952 24.6228 55.2451C24.7611 55.2448 24.9928 55.1978 25.3618 54.9733C25.7308 54.7492 25.7035 54.2365 26.8021 54.0668C25.5555 53.5172 24.7198 51.3669 24.5195 49.962C23.9662 49.0014 22.5956 46.5317 22.6956 44.2839C25.2874 44.3119 25.9572 41.1376 26.2689 40.272C26.5657 39.4472 25.4395 38.4309 24.9507 39.908C24.5933 40.9873 23.9706 42.8053 22.8417 42.9796C22.9312 42.3506 24.9722 38.0808 25.2359 36.8831ZM23.8697 31.9533C24.7493 31.858 27.4353 32.0089 27.1969 34.7156C26.1333 35.2016 25.7633 35.4027 25.7633 35.4027C26.405 33.0329 24.7917 32.3264 23.7545 32.2179C23.3864 32.1795 23.4382 31.9997 23.8697 31.9533ZM25.0347 22.8559C25.6233 23.273 27.2669 24.083 28.7232 24.0468C28.7292 23.9026 28.7281 23.7022 28.7513 23.5162C27.5967 23.3373 25.8685 22.1925 25.5577 21.9091C25.2428 21.6213 25.2893 21.3176 25.4841 20.7907C26.1 21.3859 27.1953 22.1925 28.8819 22.6825C28.913 22.5537 28.9957 22.2641 29.0323 22.1488C27.8467 21.5937 26.7957 20.6229 26.2904 19.8704C25.9611 19.38 26.3411 18.9543 26.4778 18.6884C26.739 19.4117 28.2418 20.9592 29.3679 21.3896C29.4542 21.2245 29.5109 21.1402 29.6184 20.9718C28.4468 20.2282 27.5992 18.5882 27.4094 18.1148C27.2198 17.6414 27.581 17.2645 27.8467 16.9844C28.1208 17.9881 28.6402 19.2485 30.1298 20.3216C30.2731 20.1267 30.3638 20.1427 30.4668 19.9939C29.5211 19.0342 29.0794 17.2426 29.0004 16.6819C28.9072 16.021 29.2671 15.8645 29.6914 15.6448C29.7543 17.5378 30.4183 19.4637 32.3422 20.3619C33.0955 20.7136 32.9696 21.8184 32.1377 22.5592C30.9851 23.5857 31.383 25.8685 33.4099 26.0464C34.4694 26.1396 35.1979 25.0824 36.83 24.6597C36.6343 24.8765 36.5324 25.1344 36.2045 25.5054C36.3282 25.5571 36.5324 25.6539 36.7382 25.6539C35.7559 27.5414 36.1224 29.5579 36.2155 30.0289C36.0846 29.692 35.9493 29.6139 35.8352 29.5915C35.8176 31.3615 35.2456 33.1592 34.8383 33.8561C34.6758 33.6053 34.5573 33.411 34.2972 33.1866C34.6708 32.4156 35.1108 30.7722 35.0838 29.2038C35.0282 29.1798 34.8403 29.1125 34.5752 29.1021C34.4471 30.284 33.9141 31.656 33.4669 32.3424C33.3961 32.4556 32.988 32.4589 32.5356 32.3563C33.0068 31.6237 33.6133 30.3434 33.7929 29.126C33.6025 29.1503 33.4758 29.1374 33.2413 29.1429C33.12 29.6047 32.3559 30.9751 31.658 31.7885C31.3896 32.1017 31.0474 32.2603 30.3015 32.0608C31.4444 31.0593 32.224 29.5838 32.4386 29.0603C32.3143 29.0289 32.2286 29.0092 31.9801 28.9315C31.1978 30.0919 30.081 31.0178 29.3117 31.4408C28.8094 31.7172 28.4214 31.5807 27.9216 31.1903C29.8512 30.4961 31.0521 28.8694 31.2397 28.6019C31.1083 28.5275 31.0325 28.4679 30.8143 28.3265C29.8785 29.2287 28.6493 29.8082 27.5031 30.0824C26.9613 30.2118 26.6183 29.6545 26.4877 29.3514C28.3738 29.2515 29.7143 28.2177 30.1937 27.7867C30.0998 27.7015 29.9752 27.5451 29.8741 27.4221C29.1147 27.9182 27.3983 28.3197 26.2871 28.2253C25.7944 28.1832 25.6679 27.645 25.545 27.3034C27.2573 27.6093 28.7907 27.0452 29.4129 26.7249C29.3365 26.5813 29.2271 26.3674 29.1745 26.2496C27.9329 26.6222 26.141 26.3551 25.5577 26.1694C25.0066 25.9939 25.0193 25.5998 24.9942 25.1224C25.5577 25.3569 27.5766 25.818 28.8987 25.4544C28.8777 25.3668 28.7951 24.9533 28.7868 24.902C27.0969 24.9422 25.5238 24.1043 25.2078 23.9413C24.8917 23.7781 24.9578 23.0468 25.0347 22.8559ZM25.0642 8.42778C25.1075 8.16802 25.2138 7.93439 25.3836 7.7272C25.553 7.52032 25.7735 7.35831 26.0446 7.2415C26.2639 7.14713 26.5048 7.09794 26.7673 7.09333C27.0297 7.08933 27.2622 7.14282 27.465 7.25441L27.4152 7.62606C27.3986 7.73642 27.3656 7.82772 27.3157 7.89966C27.2655 7.97159 27.2033 8.02354 27.1289 8.05582C27.0625 8.08441 26.9963 8.09547 26.9302 8.08963C26.8274 8.06781 26.7241 8.06289 26.6205 8.0758C26.5166 8.08871 26.4284 8.11084 26.3562 8.14189C26.1948 8.21137 26.0782 8.31127 26.0068 8.44161C25.9355 8.57165 25.9253 8.7109 25.9765 8.85846C26.0181 8.97865 26.1096 9.06196 26.2518 9.10807C26.3937 9.15418 26.599 9.16986 26.8674 9.1551C27.3634 9.11145 27.7665 9.17324 28.0765 9.34078C28.3864 9.50831 28.6074 9.78221 28.7391 10.1634C28.8439 10.4659 28.8706 10.7625 28.8191 11.0539C28.7678 11.3454 28.6457 11.6076 28.4529 11.8403C28.26 12.0733 28.0106 12.2556 27.7045 12.3875C27.4168 12.5117 27.1189 12.5578 26.8106 12.5258C26.5023 12.4941 26.208 12.4062 25.9275 12.2617L25.9854 11.8311C25.9967 11.7545 26.0256 11.6863 26.0716 11.627C26.1173 11.5673 26.1744 11.5227 26.243 11.4932C26.3378 11.4523 26.4364 11.4444 26.5378 11.4696C26.6905 11.5126 26.8484 11.5363 27.0115 11.5403C27.1746 11.5443 27.3091 11.5234 27.4146 11.4782C27.6295 11.3853 27.783 11.2562 27.8742 11.0908C27.9657 10.9255 27.9751 10.7379 27.9023 10.5277C27.8527 10.3847 27.7513 10.2824 27.5984 10.2212C27.4452 10.1597 27.2259 10.1293 26.9409 10.1302C26.4372 10.1456 26.0394 10.0795 25.7473 9.93222C25.4547 9.78498 25.2524 9.54858 25.1397 9.22304C25.046 8.95283 25.0209 8.68785 25.0642 8.42778ZM32.9321 5.17819L33.1148 6.11363L31.7558 6.44409L32.5893 10.7127L31.7114 10.9261L30.8782 6.65712L29.5162 6.9882L29.3335 6.05245L32.9321 5.17819ZM31.5836 15.3081C31.5453 15.1839 31.5114 15.0576 31.4833 14.9285C31.7553 14.8455 32.0294 14.7689 32.305 14.6961C32.1598 14.8652 31.8748 15.2199 31.5836 15.3081ZM33.263 15.1763C32.7345 15.9282 32.8767 16.5793 32.4901 16.9199C32.4855 16.9239 32.481 16.9257 32.4764 16.9297C32.2523 16.6712 32.057 16.3825 31.8952 16.0687C32.4929 15.8178 32.7469 15.2491 33.1826 15.0029C33.2077 15.0619 33.2344 15.1197 33.263 15.1763ZM33.8866 15.9706C33.7659 16.7016 34.1112 17.4446 33.9323 17.9933C33.6212 17.8648 33.3294 17.6936 33.0613 17.4864C33.513 16.9995 33.5328 16.2546 33.7488 15.8443C33.7932 15.8882 33.8389 15.9303 33.8866 15.9706ZM34.6587 16.3853C34.7507 16.4163 34.8031 16.4428 34.8995 16.4609C35.0582 17.326 35.611 17.7099 35.6548 18.2454C35.5349 18.258 35.4134 18.2651 35.2902 18.2651C35.0695 18.2651 34.8532 18.2436 34.6421 18.2042C34.8579 17.5252 34.673 16.9392 34.6587 16.3853ZM36.8705 13.9454C36.8454 14.8962 36.1485 15.6586 35.2902 15.6586C34.5589 15.6586 33.9453 15.1043 33.764 14.3524C34.7802 14.1495 35.8173 14.014 36.8705 13.9454ZM35.9402 4.81699L36.0695 8.0469C36.0786 8.27408 36.1304 8.47358 36.2249 8.6445C36.3194 8.81573 36.4489 8.94637 36.6134 9.03583C36.7779 9.12559 36.9655 9.16494 37.176 9.15449C37.3866 9.14434 37.5701 9.08624 37.7269 8.9805C37.8836 8.87506 38.003 8.73211 38.0845 8.55228C38.1661 8.37214 38.2025 8.16864 38.1934 7.94116L38.0644 4.71155L38.9618 4.66667L39.0908 7.89627C39.1076 8.31927 39.0407 8.6983 38.8897 9.03398C38.7387 9.36998 38.5188 9.63589 38.2289 9.83232C37.9393 10.0288 37.6018 10.1366 37.216 10.156C36.8305 10.1751 36.4861 10.1013 36.1833 9.93407C35.8802 9.76715 35.6399 9.52399 35.463 9.20459C35.2858 8.8852 35.1888 8.51416 35.172 8.09148L35.0431 4.86156L35.9402 4.81699ZM39.2079 13.9436C38.6108 13.9774 37.8812 14.2384 37.6018 14.2384C37.6147 14.1299 37.6235 14.0204 37.6241 13.9082C37.8892 13.8993 38.1545 13.8932 38.4215 13.8932C38.6849 13.8932 38.9472 13.899 39.2087 13.9076C39.2087 13.9196 39.2079 13.9313 39.2079 13.9436ZM39.7157 17.0161L39.8681 17.4474L39.489 17.5946C39.489 17.5946 39.6846 18.2319 39.7472 18.6595C39.2181 19.0391 40.0902 19.5325 40.0552 18.7929C40.1478 18.7434 40.7658 18.5015 40.7658 18.5015L40.7766 18.1658L41.0849 18.0809L41.0786 18.4093L40.7658 18.5015C40.7658 18.5015 40.781 19.1274 40.7813 19.3911C40.1985 19.6586 40.9334 20.3186 41.0414 19.6097C41.1337 19.6149 41.9554 19.5602 41.9554 19.5602L41.9193 19.088C41.9193 19.088 42.3072 19.0732 42.3218 19.0732C42.3364 19.0732 41.167 20.5998 40.8728 20.958C40.2329 19.7332 38.901 19.2681 38.8379 19.2359C38.8852 19.1298 39.2451 18.2159 39.489 17.5946C39.6187 17.2642 39.7157 17.0161 39.7157 17.0161ZM41.6512 4.81115L43.5411 5.11825C43.9776 5.18926 44.3622 5.37124 44.6951 5.6642C45.0277 5.95716 45.2732 6.32205 45.4314 6.75918C45.5895 7.196 45.6366 7.65711 45.5735 8.14189C45.5102 8.62667 45.3468 9.05335 45.0833 9.42193C44.8202 9.79051 44.4915 10.0616 44.098 10.235C43.7045 10.4087 43.2893 10.46 42.8525 10.389L40.9626 10.0816L41.6512 4.81115ZM37.2645 17.6693C36.9923 17.8467 36.6994 17.9884 36.3905 18.0892C36.2907 17.3914 35.7906 16.9168 35.6691 16.4606C35.7325 16.4489 35.7953 16.4345 35.857 16.4173C36.1929 16.9903 36.9713 17.061 37.2645 17.6693ZM37.254 15.2971C37.2879 15.2381 37.3204 15.1784 37.3502 15.1163C37.9128 15.1169 38.4904 14.7889 39.1263 14.7889C39.0671 15.1062 38.9762 15.4102 38.8591 15.6979C38.1752 15.2633 37.6018 15.4351 37.254 15.2971ZM38.4904 16.4148C38.3118 16.6964 38.1044 16.9531 37.8723 17.1802C37.4764 16.507 36.9595 16.3838 36.5949 16.053C36.6296 16.0265 36.7206 15.9479 36.7542 15.9199C37.3152 16.2934 38.0735 16.1308 38.4904 16.4148ZM35.9992 39.5803C36.0097 39.5825 36.0273 39.5852 36.0493 39.5889C36.0502 39.5864 36.0515 39.5821 36.0524 39.5803C36.1405 39.5972 36.6569 39.6698 36.965 39.7383C36.8636 40.1751 36.5787 41.4293 36.4778 42.4247C36.4742 42.4032 36.4599 42.3574 36.4387 42.2962C36.4337 42.3393 36.4288 42.3826 36.4244 42.4247C36.3974 42.2676 35.8383 40.8852 35.7374 40.7672C35.7644 40.6344 35.9562 39.6655 35.9992 39.5803ZM35.2594 39.3734C35.3627 39.3104 36.0482 37.3513 36.1444 37.1008C35.9377 37.0497 35.8113 36.9757 35.6903 36.956C35.5944 37.1085 34.6388 38.8087 34.3415 39.0611C34.0806 38.9627 33.7609 38.8379 33.4386 38.6676C33.6422 38.6006 36.5343 34.4266 36.4029 31.0805C36.5343 31.5367 37.5276 34.1131 37.5276 34.1131C37.5276 34.1131 36.0981 39.0854 36.0447 39.5456C35.7509 39.5117 35.4462 39.4263 35.2594 39.3734ZM33.6221 41.1767C33.5025 41.0887 33.0542 40.8032 32.9828 40.7343C33.0575 40.6344 33.1429 40.4466 33.2685 40.2959C33.3396 40.2105 33.9219 40.2317 34.2095 40.3617C34.0434 40.5237 33.7447 41.0027 33.6221 41.1767ZM34.7102 40.4936C34.8254 40.3706 35.5093 40.4583 35.6085 40.5505C35.3784 40.8794 34.8314 41.8388 34.7918 42.0918C34.5556 41.928 34.25 41.6599 34.1442 41.5618C34.2134 41.4174 34.5799 40.6329 34.7102 40.4936ZM38.0377 37.3888C37.9906 37.6132 37.8839 39.6648 37.8131 39.8228C37.6447 39.8084 37.2022 39.7764 36.965 39.7405C37.2019 38.5809 38.1151 35.3519 38.1151 35.3519C38.1151 35.3519 39.4556 38.2163 39.832 39.7687C39.6551 39.7875 39.0274 39.8425 38.9434 39.8358C38.9318 39.7208 38.5893 37.5176 38.6149 37.3888C38.3923 37.4017 38.1462 37.3888 38.0377 37.3888ZM39.832 39.7964C40.1883 39.7423 40.6471 39.6676 40.7617 39.6476C40.8686 39.8837 41.0282 40.8957 41.0458 41.0257C40.7636 41.3009 40.2486 42.4038 40.1974 42.4038C40.2869 41.6891 39.9477 40.0362 39.832 39.7964ZM42.744 42.4038C42.6376 42.4038 42.1193 42.4164 41.965 42.4115C41.938 42.3012 41.585 41.2507 41.3461 40.7844C41.4632 40.7743 42.1832 40.7017 42.3141 41.0595C42.4161 41.3374 42.7106 42.1471 42.744 42.4038ZM44.2341 42.3989C44.0487 42.3955 43.5552 42.4029 43.4268 42.4038C43.4339 42.3251 42.96 41.1143 42.9211 41.0282C43.1493 40.9944 43.7891 41.1017 43.8792 41.2873C43.9693 41.4733 44.2011 42.2148 44.2341 42.3989ZM47.1499 15.6269C47.5743 15.8467 47.9341 16.0032 47.841 16.6641C47.7619 17.2248 47.3202 19.0164 46.3746 19.9761C46.4776 20.1249 46.568 20.1092 46.7113 20.3038C48.2009 19.2306 48.7205 17.9703 48.9944 16.9666C49.2603 17.2466 49.6216 17.6235 49.4317 18.0969C49.2421 18.5703 48.3946 20.2103 47.223 20.954C47.3304 21.1227 47.3872 21.2066 47.4734 21.3717C48.5996 20.9414 50.1024 19.3939 50.3636 18.6705C50.5003 18.9365 50.8803 19.3622 50.551 19.8525C50.0456 20.6051 48.9944 21.5758 47.809 22.131C47.8457 22.2463 47.9283 22.5359 47.9595 22.6647C49.6461 22.1747 50.7414 21.368 51.3572 20.7729C51.552 21.2998 51.5986 21.6035 51.2834 21.8912C50.9728 22.1747 49.2446 23.3194 48.0901 23.4984C48.1132 23.6843 48.1121 23.8848 48.1179 24.0289C49.5744 24.0652 51.2181 23.2552 51.8066 22.838C51.8835 23.0289 51.9496 23.7603 51.6336 23.9235C51.3175 24.0864 49.7445 24.9244 48.0545 24.8841C48.0463 24.9355 47.9636 25.3489 47.9427 25.4366C49.2647 25.8002 51.2834 25.3391 51.8471 25.1046C51.8221 25.582 51.8347 25.976 51.2834 26.1516C50.7003 26.3373 48.9085 26.6044 47.6669 26.2318C47.6142 26.3495 47.5048 26.5635 47.4285 26.7071C48.0507 27.0274 49.5841 27.5915 51.2963 27.2856C51.1734 27.6271 51.047 28.1654 50.5543 28.2075C49.443 28.3019 47.7266 27.9004 46.9672 27.4043C46.8661 27.5272 46.7416 27.6837 46.6476 27.7688C47.1271 28.1998 48.4676 29.2336 50.3537 29.3335C50.2231 29.6366 49.88 30.194 49.338 30.0646C48.192 29.7903 46.9628 29.2109 46.0271 28.3086C45.8089 28.4501 45.7331 28.51 45.6016 28.5841C45.7893 28.8515 46.9901 30.4783 48.9198 31.1724C48.4196 31.5628 48.032 31.6993 47.5296 31.423C46.7603 31 45.6435 30.0741 44.8613 28.9136C44.6127 28.9914 44.527 29.0111 44.4028 29.0424C44.6174 29.5659 45.3969 31.0415 46.5399 32.043C45.794 32.2425 45.4518 32.0839 45.1834 31.7707C44.4854 30.9573 43.7213 29.5868 43.6001 29.1251C43.3656 29.1193 43.2389 29.1325 43.0485 29.1082C43.2281 30.3255 43.8346 31.6059 44.3058 32.3384C43.8533 32.4411 43.4452 32.4377 43.3744 32.3246C42.9272 31.6382 42.3943 30.2662 42.2662 29.0842C42.0011 29.0947 41.8132 29.162 41.7575 29.186C41.7305 30.7544 42.1706 32.3978 42.5442 33.1687C42.2841 33.3931 42.1656 33.5874 42.003 33.8383C41.5958 33.1414 41.0237 31.344 41.0061 29.5739C39.2432 31.43 41.7859 36.9053 43.5668 38.6744C43.1372 38.8462 42.8941 39.0011 42.6084 39.0737C42.3111 38.9138 41.2728 37.1207 41.1764 36.9969C40.9232 37.0706 40.857 37.0645 40.676 37.126C40.7744 37.3962 41.5236 39.1352 41.7382 39.3501C41.5878 39.4272 41.0116 39.5668 40.7744 39.6021C39.0114 33.6809 35.0439 29.3096 38.1589 25.1654C38.1881 25.1267 38.2157 25.0916 38.2435 25.056C38.2256 25.0514 38.2082 25.0468 38.1925 25.0421C37.8533 24.9429 37.0711 24.6948 36.8492 24.6253C37.0584 24.5328 37.9454 22.558 37.8415 21.8359C37.809 21.6103 37.1617 20.4652 36.6073 20.8617C36.574 20.8854 36.7569 19.8882 37.2841 19.8396C37.607 19.8098 37.8842 20.131 38.0826 20.151C38.2598 20.1685 38.2077 20.0708 38.2184 19.9503C38.2675 19.9208 38.287 19.9435 38.3198 19.9537C40.9739 20.78 40.5553 23.2577 40.8066 24.1249C39.9673 24.1144 39.6094 24.5017 39.4358 24.7922C39.4496 24.8995 39.4479 24.9837 39.4479 24.9837C41.3555 24.4615 41.7564 26.1759 43.4315 26.0286C45.4584 25.8506 45.8563 23.5678 44.7036 22.5414C43.8718 21.8006 43.7459 20.6957 44.4992 20.3441C46.423 19.4458 47.0871 17.5199 47.1499 15.6269ZM48.2025 6.23259L49.0628 6.52186L47.685 11.618L46.8251 11.3285L48.2025 6.23259ZM51.4234 7.45976L52.2541 7.84186L50.4342 12.7625L49.6037 12.3801L51.4234 7.45976ZM62.7797 16.9229L63.4222 16.2885L65.8638 19.365L65.2213 19.9995L64.299 18.8381L61.3672 21.7338L60.7715 20.9835L63.7038 18.0874L62.7797 16.9229ZM68.0084 22.819L65.1389 27.6705L64.7892 27.0695C64.7313 26.9699 64.703 26.8629 64.7038 26.7486C64.7049 26.6342 64.7366 26.5266 64.7994 26.4252L65.1951 25.7624L64.0218 23.7446L63.3181 23.878C63.2081 23.8983 63.1064 23.886 63.0125 23.8402C62.9185 23.7947 62.8425 23.7221 62.7846 23.6226L62.4352 23.0216L67.5758 22.0748L68.0084 22.819ZM70.2477 27.3926L67.5774 28.6486C67.3895 28.7372 67.2399 28.8604 67.1288 29.0188C67.0175 29.1771 66.9531 29.3578 66.9349 29.561C66.9164 29.7645 66.9484 29.9742 67.0302 30.1909C67.112 30.4076 67.2245 30.5795 67.3677 30.7067C67.511 30.8343 67.6725 30.9093 67.8519 30.9324C68.0315 30.9551 68.2153 30.9225 68.4032 30.834L71.0735 29.5779L71.4227 30.5017L68.7524 31.7574C68.4027 31.9219 68.0607 31.9834 67.7262 31.9422C67.3914 31.9007 67.0916 31.7627 66.8257 31.5278C66.5601 31.2929 66.3524 30.9772 66.2025 30.5804C66.0526 30.1835 65.9953 29.7977 66.0303 29.4227C66.0655 29.0473 66.1865 28.712 66.3937 28.4159C66.6006 28.1196 66.8789 27.8893 67.2283 27.7249L69.8989 26.4691L70.2477 27.3926ZM72.5893 35.2858C72.6513 35.5976 72.645 35.8957 72.5709 36.1801C72.4967 36.4644 72.3628 36.7079 72.1691 36.9105C71.9754 37.1131 71.739 37.2489 71.4593 37.3178C71.2298 37.3747 71.0091 37.3639 70.7972 37.2858C70.585 37.2077 70.4064 37.0872 70.2618 36.924C70.1169 36.7608 70.0251 36.5877 69.9865 36.4045L69.9603 36.2895L69.9537 36.2911C69.9716 36.426 69.9678 36.5422 69.943 36.6397C69.9179 36.7371 69.8713 36.8259 69.8033 36.9062L68.3729 38.6778L68.2123 37.8699C68.1894 37.7537 68.1878 37.6464 68.2082 37.5477C68.2283 37.4491 68.2828 37.3491 68.3718 37.2486L69.6049 35.7196L69.4704 35.0418L67.7359 35.4709L67.5416 34.4921L72.203 33.34L72.5893 35.2858ZM73.2975 40.8401L68.5421 41.2763L68.4685 40.2775L73.2236 39.841L73.2975 40.8401ZM38.5714 0.875122C17.4531 0.875122 0.333252 19.9847 0.333252 43.5575C0.333252 67.1303 17.4531 86.2399 38.5714 86.2399C59.69 86.2399 76.8098 67.1303 76.8098 43.5575C76.8098 19.9847 59.69 0.875122 38.5714 0.875122Z" fill="#D8223A"/>
</svg>
