<svg width="451" height="295" viewBox="0 0 451 295" fill="none" xmlns="http://www.w3.org/2000/svg">
<g clip-path="url(#clip0_2_381)">
<path d="M416.114 142.448H50.4026C45.5006 142.448 41.5126 138.465 41.5126 133.569V8.8791C41.5126 3.98314 45.5006 0 50.4026 0H416.114C421.016 0 425.004 3.98314 425.004 8.8791V133.569C425.004 138.465 421.016 142.448 416.114 142.448ZM50.4026 1.05859C46.0851 1.05859 42.5725 4.56697 42.5725 8.8791V133.569C42.5725 137.881 46.0851 141.39 50.4026 141.39H416.114C420.431 141.39 423.944 137.881 423.944 133.569V8.8791C423.944 4.56697 420.431 1.05859 416.114 1.05859H50.4026V1.05859Z" fill="#3F3D56"/>
<path d="M451 291.406H0V292.297H451V291.406Z" fill="#E6E6E6"/>
<path d="M451 245.887H0V246.778H451V245.887Z" fill="#E6E6E6"/>
<path d="M205.533 147.034C205.857 151.099 208.22 154.227 210.81 154.02C213.4 153.814 215.236 150.352 214.912 146.286C214.805 144.66 214.309 143.083 213.466 141.687L211.876 124.481L203.808 125.399L206.232 142.263C205.621 143.775 205.381 145.411 205.533 147.034Z" fill="#FFB6B6"/>
<path d="M195.895 66.7615C195.895 66.7615 203.437 62.7738 207.261 68.7329C211.086 74.6919 213.725 139.14 213.725 139.14L203.125 140.27L201.116 94.8556L195.895 66.7615V66.7615Z" fill="#E6E6E6"/>
<path d="M180.241 242.525L186.382 242.524L189.303 218.867L180.24 218.868L180.241 242.525Z" fill="#FFB6B6"/>
<path d="M201.28 242.385C201.471 242.707 201.572 243.745 201.572 244.119C201.572 245.269 200.639 246.201 199.488 246.201H180.471C179.686 246.201 179.049 245.565 179.049 244.781V243.99C179.049 243.99 178.108 241.613 180.045 238.684C180.045 238.684 182.452 240.978 186.049 237.385L187.11 235.466L194.788 241.074L199.044 241.598C199.975 241.712 200.801 241.58 201.28 242.385H201.28H201.28Z" fill="#2F2E41"/>
<path d="M215.776 241.509L221.726 239.991L218.694 216.348L209.913 218.589L215.776 241.509Z" fill="#FFB6B6"/>
<path d="M236.126 236.174C236.391 236.438 236.746 237.419 236.839 237.781C237.123 238.895 236.45 240.029 235.335 240.313L216.91 245.014C216.149 245.208 215.375 244.75 215.18 243.99L214.984 243.224C214.984 243.224 213.484 241.153 214.635 237.836C214.635 237.836 217.535 239.464 220.13 235.094L220.682 232.972L229.511 236.508L233.765 235.963C234.695 235.844 235.462 235.511 236.126 236.174H236.126V236.174Z" fill="#2F2E41"/>
<path d="M175.161 61.676L174.87 59.5658L178.33 51.1246L187.838 50.0695L189.891 62.1541L175.161 61.676Z" fill="#FFB6B6"/>
<path opacity="0.1" d="M175.161 61.676L174.87 59.5658L178.33 51.1246L187.838 50.0695L189.891 62.1541L175.161 61.676Z" fill="black"/>
<path d="M164.068 121.292L159.842 132.898L163.012 139.229L178.858 231.027H189.394L187.31 149.781L211.608 231.027H222.035L213.65 176.159L207.382 125.512L203.581 123.167L185.197 112.851L164.068 121.292Z" fill="#2F2E41"/>
<path d="M191.007 129.205L184.669 130.26L176.217 110.213H195.233L191.007 129.205Z" fill="#E6E6E6"/>
<path d="M203.685 123.93L191.007 129.205L186.782 119.709L184.669 130.26L162.484 123.128L165.653 110.213L162.484 68.0069L173.671 60.5575L175.161 59.5657L188.895 60.6209L190.099 61.2751L198.402 65.8966L200.515 100.716L203.685 123.93Z" fill="#2F2E41"/>
<path d="M190.099 61.2751L184.141 86.4719L173.671 60.5575L175.161 59.5657L188.895 60.6209L190.099 61.2751Z" fill="#E6E6E6"/>
<path d="M179.915 59.5657L177.802 63.2001L179.915 64.4116L178.858 86.5375L183.084 92.2752L187.31 83.795L184.141 64.4116L185.197 59.5657H179.915Z" fill="#D8223A"/>
<path d="M183.084 57.4555C188.627 57.4555 193.12 52.9676 193.12 47.4316C193.12 41.8956 188.627 37.4077 183.084 37.4077C177.541 37.4077 173.048 41.8956 173.048 47.4316C173.048 52.9676 177.541 57.4555 183.084 57.4555Z" fill="#FFB6B6"/>
<path d="M176.67 48.3109L178.839 49.2561L179.785 43.5847C179.785 43.5847 183.571 41.6942 186.41 42.6395C189.249 43.5847 193.981 42.6395 193.981 42.6395C193.981 42.6395 193.981 33.1871 187.356 33.1871C180.732 33.1871 174.107 34.1324 174.107 36.9681C174.107 39.8038 171.268 42.6395 171.268 42.6395C171.268 42.6395 167.482 48.3109 171.268 52.0918C175.053 55.8727 176.946 55.8727 176.946 55.8727L176.67 48.3109Z" fill="#2F2E41"/>
<path d="M157.196 146.737C157.086 150.813 159.103 154.174 161.7 154.244C164.298 154.313 166.492 151.066 166.601 146.988C166.668 145.359 166.342 143.739 165.653 142.262L165.901 124.985L157.781 125.041L158.398 142.068C157.63 143.506 157.218 145.107 157.196 146.737V146.737Z" fill="#FFB6B6"/>
<path d="M167.243 65.8768C167.243 65.8768 160.376 63.7665 157.207 70.0974C154.037 76.4283 158.263 140.792 158.263 140.792H168.923L166.094 95.4209L167.243 65.8768V65.8768Z" fill="#E6E6E6"/>
<path d="M430.662 185.786L405.055 177.957C404.488 177.784 403.894 177.72 403.304 177.771L273.52 188.802C271.669 188.96 271.204 191.453 272.874 192.265L277.031 194.288H276.92V291.123H280.837V196.14L293.866 202.48C294.863 202.965 295.976 203.163 297.079 203.051L298.465 202.912V291.123H302.383V202.516L402.764 192.389V291.123H406.682V191.994L423.33 190.314V291.123H427.248V189.919L430.285 189.613C432.417 189.398 432.712 186.413 430.662 185.786H430.662Z" fill="#3F3D56"/>
<path d="M311.197 188.419C313.645 188.419 349.88 184.017 349.88 184.017L355.267 191.353L317.562 198.689L311.197 188.419V188.419Z" fill="white"/>
<path d="M350.965 287.362L344.67 287.351L341.717 263.093L351.008 263.109L350.965 287.362Z" fill="#A0616A"/>
<path d="M329.397 287.183C329.2 287.512 329.095 288.576 329.094 288.959C329.092 290.138 330.047 291.095 331.227 291.097L350.723 291.131C351.528 291.132 352.182 290.481 352.184 289.677L352.185 288.867C352.185 288.867 353.154 286.432 351.173 283.425C351.173 283.425 348.701 285.772 345.02 282.083L343.936 280.113L336.054 285.85L331.69 286.379C330.735 286.495 329.889 286.357 329.397 287.183H329.397L329.397 287.183Z" fill="#2F2E41"/>
<path d="M384.753 276.082L379.786 279.823L362.972 262.47L370.302 256.947L384.753 276.082Z" fill="#A0616A"/>
<path d="M367.652 288.79C367.694 289.167 368.246 290.068 368.475 290.371C369.177 291.301 370.501 291.486 371.432 290.784L386.813 279.195C387.449 278.717 387.575 277.814 387.096 277.18L386.613 276.541C386.613 276.541 385.922 274.045 382.566 272.856C382.566 272.856 382.02 276.178 376.916 275.464L374.885 274.558L372.101 283.774L368.979 286.791C368.296 287.451 367.547 287.847 367.652 288.79L367.652 288.79V288.79Z" fill="#2F2E41"/>
<path d="M371.597 150.711C371.597 156.509 366.89 161.21 361.085 161.21C355.279 161.21 350.573 156.509 350.573 150.711C350.573 144.913 355.279 140.212 361.085 140.212C366.89 140.212 371.597 144.913 371.597 150.711Z" fill="#A0616A"/>
<path d="M370.606 211.245C370.606 211.245 331.903 209.056 329.713 213.433C327.522 217.809 341.556 277.918 341.556 277.918L354.077 275.297L347.969 233.125C347.969 233.125 380.265 241.668 384.647 231.457C389.028 221.246 387.767 217.444 387.767 217.444L370.606 211.245V211.245Z" fill="#2F2E41"/>
<path d="M380.522 203.899C380.522 203.899 342.619 212.015 341.665 216.814C340.711 221.613 370.166 275.873 370.166 275.873L381.547 270.037L364.486 230.981C364.486 230.981 397.895 230.686 399.416 219.682C400.937 208.677 398.714 205.344 398.714 205.344L380.522 203.899V203.899Z" fill="#2F2E41"/>
<path d="M384.846 162.743H366.636L354.176 183.165C354.176 183.165 351.255 196.362 354.176 197.786C357.097 199.21 357.097 214.527 357.097 214.527L387.767 217.444C387.767 217.444 392.148 171.495 390.688 167.119C389.227 162.743 384.846 162.743 384.846 162.743V162.743Z" fill="#D8223A"/>
<path d="M356.001 176.236L354.176 197.786L333.642 189.082L328.741 186.62C327.781 185.37 326.535 184.368 325.108 183.697C321.559 181.969 317.791 182.397 316.69 184.653C315.59 186.908 317.574 190.136 321.122 191.862C322.531 192.572 324.089 192.934 325.667 192.919L340.006 201.053L340.023 201.021L340.087 201.135L362.573 210.515L367.747 182.225L356.001 176.236H356.001Z" fill="#A0616A"/>
<path d="M353.811 152.168C353.811 152.168 342.857 153.626 347.238 144.145C347.238 144.145 346.57 139.005 349.825 138.657C353.08 138.31 357.462 132.475 357.462 132.475C357.462 132.475 367.507 127.37 372.708 132.475C377.908 137.581 393.244 167.484 393.244 167.484L383.02 178.424C383.02 178.424 376.874 162.287 369.724 164.156C362.573 166.025 356.001 171.599 356.001 171.599C356.001 171.599 348.745 167.972 352.008 164.81C355.271 161.649 353.811 152.168 353.811 152.168Z" fill="#2F2E41"/>
<path d="M368.415 168.213C368.415 168.213 363.304 161.649 359.652 166.754C356.001 171.86 353.08 178.424 353.08 178.424L367.685 183.529L368.415 168.213H368.415Z" fill="#D8223A"/>
<path d="M423.868 289.671L406.9 235.805L406.902 235.805H406.941L406.873 235.717L406.871 235.715L405.663 231.878L405.663 231.877C407.504 230.293 408.758 228.028 409.008 225.422L401.251 182.814C401.785 177.219 397.491 172.329 391.864 172.128L374.364 172.084C369.389 171.908 365.08 175.498 364.355 180.418L363.968 183.03L358.606 219.46C358.41 220.771 358.489 222.062 358.797 223.27L354.939 223.774L353.768 223.93L349.141 224.532L349.126 224.537L348.548 224.61H347.922V240.26H347.961V290.282C347.961 290.604 348.225 290.869 348.548 290.869C348.876 290.869 349.141 290.604 349.141 290.282V240.26H356.006L362.856 290.223C362.901 290.516 363.15 290.732 363.444 290.732C363.469 290.732 363.498 290.732 363.522 290.727C363.846 290.683 364.071 290.384 364.027 290.062L357.201 240.26H390.141C393.411 240.26 396.442 239.223 398.91 237.448L411.97 290.131C412.038 290.398 412.278 290.575 412.541 290.575C412.589 290.575 412.638 290.569 412.687 290.557C413.003 290.477 413.194 290.156 413.113 289.841L399.927 236.648C400.102 236.502 400.278 236.347 400.443 236.186L405.686 235.878L422.743 290.025C422.822 290.276 423.054 290.437 423.305 290.437C423.364 290.437 423.423 290.428 423.482 290.41C423.793 290.312 423.966 289.981 423.868 289.671V289.671ZM404.542 232.714C404.586 232.689 404.625 232.66 404.664 232.635L404.665 232.635L404.791 233.035L404.542 232.714V232.714Z" fill="#E6E6E6"/>
<path d="M90.9198 198.366L102.34 191.112L106.982 193.909L90.9198 212.344V198.366Z" fill="#FFB6B6"/>
<path d="M75.3035 170.291C75.3035 170.291 67.7184 172.073 71.2879 182.323C74.8573 192.573 86.458 213.963 90.0274 212.626C93.5969 211.289 94.0431 197.92 94.0431 197.92C94.0431 197.92 93.5969 198.366 91.8122 196.583C90.0274 194.801 90.0274 195.615 90.0274 193.648C90.0274 191.681 88.5677 190.223 88.5677 190.223L86.9042 186.779C86.9042 186.779 86.9042 170.737 80.2115 169.845C73.5188 168.954 75.3035 170.291 75.3035 170.291L75.3035 170.291Z" fill="#E6E6E6"/>
<path d="M110.741 193.43C113.703 190.472 114.622 186.592 112.792 184.765C110.962 182.937 107.078 183.854 104.116 186.813C101.154 189.771 100.235 193.651 102.065 195.478C103.895 197.306 107.779 196.389 110.741 193.43Z" fill="#FFB6B6"/>
<path d="M45.7596 229.338L53.552 242.219L98.9625 239.536L86.8709 223.97L45.7596 229.338Z" fill="#E6E6E6"/>
<path d="M59.3284 289.587C59.0639 289.587 58.8335 289.392 58.7966 289.123L45.2272 190.141C45.1869 189.848 45.3926 189.577 45.6867 189.537C45.9806 189.494 46.2516 189.702 46.292 189.996L59.8614 288.977C59.9017 289.271 59.696 289.542 59.402 289.582C59.3772 289.585 59.3526 289.587 59.3284 289.587Z" fill="#E6E6E6"/>
<path d="M45.7596 289.713C45.4628 289.713 45.2222 289.472 45.2222 289.176V190.088C45.2222 189.791 45.4628 189.551 45.7596 189.551C46.0563 189.551 46.297 189.791 46.297 190.088V289.176C46.297 289.472 46.0563 289.713 45.7596 289.713Z" fill="#E6E6E6"/>
<path d="M113.875 289.319C113.647 289.319 113.435 289.172 113.363 288.943L81.2529 187.009C81.1639 186.726 81.3212 186.425 81.6043 186.336C81.8873 186.247 82.1892 186.404 82.2782 186.687L114.388 288.621C114.477 288.903 114.32 289.205 114.037 289.294C113.983 289.311 113.929 289.319 113.875 289.319V289.319Z" fill="#E6E6E6"/>
<path d="M104.067 289.444C103.827 289.444 103.609 289.283 103.547 289.04L81.2447 199.076C81.1716 198.789 81.3455 198.497 81.6331 198.424C81.9216 198.351 82.2132 198.524 82.2864 198.812L104.589 288.775C104.662 289.062 104.488 289.355 104.2 289.428C104.156 289.439 104.111 289.444 104.067 289.444H104.067Z" fill="#E6E6E6"/>
<path d="M45.7596 191.666L82.9747 191.095L89.8266 230.143H46.297L45.7596 191.666Z" fill="#E6E6E6"/>
<path d="M102.95 249.084L93.571 265.576L104.461 267.97L109.001 256.24L102.95 249.084Z" fill="#FFB6B6"/>
<path d="M96.9398 262.462C96.9398 262.462 96.5753 259.773 94.4328 260.626C92.2902 261.48 86.1067 264.651 86.1067 264.651C86.1067 264.651 102.235 290.825 105.296 289.606C108.356 288.387 104.692 280.988 104.692 280.988L105.501 267.91L96.9398 262.462H96.9398Z" fill="#2F2E41"/>
<path d="M61.472 217.082C61.472 217.082 58.1256 232.457 68.3878 237.804C78.6499 243.152 113.675 230.006 113.675 230.006L97.6126 254.044L108.767 258.526C108.767 258.526 134.199 225.104 132.415 219.756C130.63 214.409 118.583 213.963 118.583 213.963L91.3661 215.3L84.2272 213.072L61.472 217.082H61.472Z" fill="#2F2E41"/>
<path d="M89.0748 256.403L74.3303 268.356L83.601 274.544L92.1033 265.268L89.0748 256.403Z" fill="#FFB6B6"/>
<path d="M78.6024 266.68C78.6024 266.68 79.2428 264.042 76.9362 264.059C74.6296 264.075 67.7144 264.782 67.7144 264.782C67.7144 264.782 73.2008 295.023 76.496 295C79.7912 294.977 79.0739 286.754 79.0739 286.754L84.5919 274.866L78.6024 266.68V266.68Z" fill="#2F2E41"/>
<path d="M62.0993 211.521C62.0993 211.521 53.381 224.625 60.9914 233.336C68.6017 242.047 106.015 242.531 106.015 242.531L82.2962 259.083L91.0529 267.313C91.0529 267.313 126.918 245.424 127.204 239.795C127.49 234.165 116.432 229.372 116.432 229.372L90.5935 220.725L84.7558 216.055L62.0993 211.521H62.0993Z" fill="#2F2E41"/>
<path d="M84.4959 181.169C84.4959 181.169 76.0185 178.049 72.0028 178.049C71.6191 178.049 71.2398 178.094 70.8606 178.174C68.2906 178.718 65.9259 180.924 64.7926 182.127C64.3508 182.599 64.0965 182.916 64.0965 182.916C64.0965 182.916 64.1233 182.608 64.1768 182.069C64.4401 179.235 65.4127 169.934 67.1573 163.981C67.7819 161.855 68.5003 160.157 69.3257 159.333C71.2488 157.408 72.1367 155.099 72.5472 153.379C72.8952 151.904 72.8952 150.866 72.8952 150.866L69.6425 149.466L69.0402 145.536C68.9331 145.999 68.4378 146.904 66.7736 148.638C66.6308 148.785 66.4746 148.909 66.3096 149.016C63.9091 150.523 59.0145 147.902 56.3776 146.253C57.4752 142.443 59.4652 138.958 63.0792 138.388C71.5566 137.051 71.5566 132.149 76.9108 137.497C77.3525 137.938 77.7987 138.361 78.2449 138.771C79.9582 142.042 80.5829 146.427 80.806 149.475C80.9666 151.61 80.9264 153.094 80.9264 153.094C80.9264 153.094 83.1573 166.463 86.7268 169.137C90.2962 171.811 84.4959 181.169 84.4959 181.169V181.169Z" fill="#2F2E41"/>
<path d="M67.9872 159.778L61.9585 168.611L75.5723 172.256V159.778H67.9872Z" fill="#FFB6B6"/>
<path opacity="0.1" d="M67.9872 159.778L61.9585 168.611L75.5723 172.256V159.778H67.9872Z" fill="black"/>
<path d="M76.4189 168.286L63.4797 162.938C63.4797 162.938 46.0787 170.514 47.4172 185.22C48.7557 199.926 61.2488 225.327 61.2488 225.327L86.2349 214.631L83.5578 186.111L76.4189 168.286V168.286Z" fill="#E6E6E6"/>
<path d="M70.8712 163.722C77.1758 163.722 82.2868 158.617 82.2868 152.32C82.2868 146.023 77.1758 140.919 70.8712 140.919C64.5666 140.919 59.4557 146.023 59.4557 152.32C59.4557 158.617 64.5666 163.722 70.8712 163.722Z" fill="#FFB6B6"/>
<path d="M86.2807 148.192C84.0498 150.42 82.265 152.648 82.265 152.648L81.3727 149.083C81.3727 149.083 81.1674 149.235 80.806 149.475C79.3916 150.438 75.5946 152.858 72.5472 153.379C71.1908 153.611 69.9861 153.464 69.2009 152.648C67.5366 150.915 67.0414 150.01 66.9343 149.547L66.3319 153.477L63.0793 154.876C63.0793 154.876 63.0793 159.77 66.6487 163.343C66.8227 163.517 66.9923 163.731 67.1574 163.981C68.8618 166.548 70.0843 172.831 70.8607 178.174C71.5478 182.925 71.8779 186.926 71.8779 186.926C71.8779 186.926 68.5004 182.702 64.7926 182.127C64.5874 182.096 64.3821 182.073 64.1769 182.069C64.1099 182.06 64.0386 182.06 63.9716 182.06C59.956 182.06 51.4786 185.18 51.4786 185.18C51.4786 185.18 45.6782 175.821 49.2477 173.147C52.8171 170.474 55.048 157.105 55.048 157.105C55.048 157.105 54.9008 151.383 56.3776 146.253C57.4752 142.443 59.4652 138.958 63.0793 138.388C71.5567 137.051 71.5567 132.149 76.9109 137.497C77.3526 137.938 77.7988 138.361 78.245 138.771C83.2333 143.352 88.3287 146.147 86.2807 148.192V148.192Z" fill="#2F2E41"/>
<path d="M36.2131 208.012H31.9735V291.641H36.2131V208.012Z" fill="#3F3D56"/>
<path d="M139.022 208.012H134.783V291.641H139.022V208.012Z" fill="#3F3D56"/>
<path d="M111.995 172.55H83.908V200.602H111.995V172.55Z" fill="#D8223A"/>
<path d="M67.7185 202.377L79.1383 195.123L83.781 197.92L67.7185 216.354V202.377Z" fill="#FFB6B6"/>
<path d="M52.1022 174.302C52.1022 174.302 44.5171 176.084 48.0866 186.334C51.656 196.583 63.2567 217.974 66.8262 216.637C70.3956 215.3 70.8418 201.931 70.8418 201.931C70.8418 201.931 70.3956 202.376 68.6109 200.594C66.8262 198.811 66.8262 199.625 66.8262 197.659C66.8262 195.692 65.3664 194.234 65.3664 194.234L63.7029 190.79C63.7029 190.79 63.7029 174.747 57.0102 173.856C50.3175 172.965 52.1022 174.302 52.1022 174.302H52.1022Z" fill="#E6E6E6"/>
<path d="M87.5399 197.441C90.5021 194.482 91.4202 190.603 89.5907 188.775C87.7611 186.948 83.8766 187.865 80.9145 190.824C77.9523 193.782 77.0342 197.662 78.8637 199.489C80.6933 201.316 84.5778 200.399 87.5399 197.441Z" fill="#FFB6B6"/>
<path d="M147.501 204.837H19.2549V214.364H147.501V204.837Z" fill="#3F3D56"/>
<path d="M277.798 128.618H258.858C257.357 128.618 256.14 129.834 256.14 131.334V139.135C256.14 140.635 257.357 141.851 258.858 141.851H277.798C279.3 141.851 280.517 140.635 280.517 139.135V131.334C280.517 129.834 279.3 128.618 277.798 128.618Z" fill="#3F3D56"/>
<path d="M317.544 136.42H298.604C297.103 136.42 295.885 137.636 295.885 139.135V139.135C295.885 140.635 297.103 141.851 298.604 141.851H317.544C319.046 141.851 320.263 140.635 320.263 139.135V139.135C320.263 137.636 319.046 136.42 317.544 136.42Z" fill="#D8223A"/>
</g>
<defs>
<clipPath id="clip0_2_381">
<rect width="451" height="295" fill="white"/>
</clipPath>
</defs>
</svg>
